<svg width="203" height="203" viewBox="0 0 203 203" fill="none" xmlns="http://www.w3.org/2000/svg">
<path d="M100.66 59L100.668 100.619L116.603 62.1712L100.683 100.625L130.118 71.2019L100.695 100.637L139.149 84.7173L100.701 100.652L142.32 100.66L100.701 100.668L139.149 116.603L100.695 100.683L130.118 130.118L100.683 100.695L116.603 139.149L100.668 100.701L100.66 142.32L100.652 100.701L84.7173 139.149L100.637 100.695L71.2019 130.118L100.625 100.683L62.1712 116.603L100.619 100.668L59 100.66L100.619 100.652L62.1712 84.7173L100.625 100.637L71.2019 71.2019L100.637 100.625L84.7173 62.1712L100.652 100.619L100.66 59Z" stroke="white"/>
<path d="M91.421 197.219L89.8952 197.043L91.1825 185.917L92.7083 186.093L91.421 197.219Z" fill="white"/>
<path d="M80.1468 195.469L78.7572 195.092L75.6738 185.267L75.6429 185.259L73.3687 193.627L71.9482 193.241L74.8854 182.433L76.275 182.811L79.3584 192.635L79.3893 192.644L81.6636 184.275L83.0841 184.661L80.1468 195.469Z" fill="white"/>
<path d="M63.9843 190.361L62.5581 189.672L63.7929 179.873L63.7641 179.859L56.8534 186.915L55.4272 186.226L63.8732 177.868L65.285 178.55L63.9843 190.361Z" fill="white"/>
<path d="M47.5949 181.479L41.5151 177.054L42.306 175.967L47.144 179.489L49.2438 176.604L44.781 173.355L45.5625 172.282L50.0254 175.53L52.1534 172.607L47.3154 169.085L48.1064 167.999L54.1862 172.424L47.5949 181.479Z" fill="white"/>
<path d="M34.5103 170.995L33.5156 169.953L35.9511 159.949L35.929 159.925L29.6584 165.916L28.6416 164.851L36.7402 157.115L37.7349 158.156L35.2994 168.161L35.3215 168.184L41.5921 162.194L42.6089 163.258L34.5103 170.995Z" fill="white"/>
<path d="M22.5702 154.687L24.4302 157.504L23.3219 158.236L18.7557 151.319L19.864 150.588L21.724 153.405L29.9626 147.966L30.8088 149.248L22.5702 154.687Z" fill="white"/>
<path d="M23.0131 139.608L16.0116 142.605L13.659 141.663L11.5813 136.809L12.5235 134.456L19.525 131.459L21.8776 132.401L23.9554 137.255L23.0131 139.608ZM20.9317 133.607L19.6294 133.085L13.628 135.654L13.1064 136.956L14.605 140.457L15.9073 140.979L21.9086 138.41L22.4302 137.107L20.9317 133.607Z" fill="white"/>
<path d="M16.5542 114.828L15.7625 114.943L15.1458 114.483L15.0237 113.644L15.4836 113.027L16.2753 112.912L16.892 113.372L17.0141 114.211L16.5542 114.828Z" fill="white"/>
<path d="M14.299 95.6567L6.73357 94.7801L5.15972 92.7938L5.74901 87.7078L7.66441 86.1902L8.92001 86.3357L8.74323 87.8614L8.02801 87.7786L6.99937 88.5936L6.5795 92.2174L7.45074 93.3169L13.9354 94.0683L15.0349 93.197L15.4511 89.6051L14.5939 88.5232L12.3053 88.2581L12.0198 90.7216L10.6847 90.5669L11.1451 86.5935L15.2934 87.0741L16.8672 89.0604L16.2853 94.0828L14.299 95.6567Z" fill="white"/>
<path d="M7.87345 76.8913L10.0555 69.6948L11.3416 70.0848L9.60531 75.8114L13.0198 76.8466L14.6215 71.5641L15.8924 71.9495L14.2907 77.232L17.7511 78.2812L19.4874 72.5546L20.7736 72.9446L18.5916 80.1411L7.87345 76.8913Z" fill="white"/>
<path d="M21.7765 65.52L14.9982 62.0475L14.2204 59.6355L16.5111 55.1641L18.8369 54.4141L19.9618 54.9904L19.2615 56.3574L18.6207 56.0292L17.3717 56.432L15.7521 59.5933L16.1827 60.9285L21.9927 63.9049L23.3279 63.4743L24.9474 60.313L24.5446 59.0639L23.9038 58.7357L24.6041 57.3686L25.7291 57.9449L26.4791 60.2707L24.1885 64.7421L21.7765 65.52Z" fill="white"/>
<path d="M29.2877 36.9051L33.9056 32.1785L36.1003 32.1529L38.7555 34.747L38.7812 36.9643L35.2479 40.5808L38.3723 43.6333L37.2989 44.732L29.2877 36.9051ZM37.3732 36.5281L37.3728 35.5212L35.37 33.5644L34.3633 33.5875L31.2996 36.7233L34.3095 39.664L37.3732 36.5281Z" fill="white"/>
<path d="M42.338 24.7678L43.5951 23.8851L46.4363 27.9311L48.3218 26.6071L47.7983 20.9335L49.1862 19.9589L49.7633 26.3769L55.8191 28.9868L54.4049 29.9798L49.0942 27.707L47.2087 29.031L50.0315 33.0509L48.7744 33.9336L42.338 24.7678Z" fill="white"/>
<path d="M57.3966 15.2355L63.4976 12.4567L65.8924 13.3526L69.0359 20.2544L68.14 22.6492L62.039 25.428L57.3966 15.2355ZM66.9276 21.7245L67.4192 20.4106L64.7134 14.4698L63.3994 13.9782L59.3515 15.8219L62.8797 23.5682L66.9276 21.7245Z" fill="white"/>
<path d="M85.7761 16.8378L85.6427 16.0489L86.0884 15.4219L86.9245 15.2805L87.5516 15.7262L87.685 16.515L87.2393 17.1421L86.4031 17.2834L85.7761 16.8378Z" fill="white"/>
<path d="M105.648 4.86588L107.181 4.95455L106.535 16.1359L105.001 16.0472L105.648 4.86588Z" fill="white"/>
<path d="M117.004 5.9656L118.413 6.26285L122.055 15.8942L122.086 15.9008L123.877 7.41554L125.317 7.71939L123.005 18.6782L121.596 18.3809L117.954 8.74962L117.922 8.74301L116.132 17.2282L114.692 16.9244L117.004 5.9656Z" fill="white"/>
<path d="M133.433 10.1379L134.897 10.7441L134.226 20.5978L134.256 20.6101L140.75 13.169L142.214 13.7753L134.261 22.6039L132.813 22.0038L133.433 10.1379Z" fill="white"/>
<path d="M150.305 18.0641L156.629 22.1334L155.902 23.2636L150.87 20.0255L148.939 23.026L153.581 26.013L152.862 27.1298L148.22 24.1427L146.264 27.1836L151.296 30.4217L150.568 31.5519L144.245 27.4826L150.305 18.0641Z" fill="white"/>
<path d="M163.97 27.7805L165.023 28.7629L163.166 38.891L163.189 38.9129L169.106 32.5725L170.182 33.5768L162.541 41.7654L161.488 40.783L163.345 30.6548L163.322 30.633L157.405 36.9733L156.329 35.9691L163.97 27.7805Z" fill="white"/>
<path d="M176.827 43.3758L174.808 40.6698L175.872 39.8757L180.828 46.5189L179.764 47.3129L177.745 44.6069L169.832 50.5098L168.914 49.2786L176.827 43.3758Z" fill="white"/>
<path d="M177.25 58.4556L184.068 55.0616L186.471 55.8672L188.824 60.594L188.018 62.9968L181.2 66.3907L178.797 65.5851L176.444 60.8584L177.25 58.4556ZM179.672 64.3273L181.003 64.7733L186.846 61.8641L187.292 60.534L185.595 57.125L184.265 56.6791L178.421 59.5882L177.975 60.9183L179.672 64.3273Z" fill="white"/>
<path d="M185.121 82.8242L185.905 82.6637L186.547 83.0875L186.717 83.9183L186.293 84.5604L185.509 84.7208L184.867 84.297L184.697 83.4663L185.121 82.8242Z" fill="white"/>
<path d="M188.473 101.834L196.076 102.275L197.761 104.168L197.465 109.279L195.64 110.904L194.378 110.831L194.467 109.297L195.185 109.339L196.166 108.466L196.377 104.824L195.444 103.777L188.927 103.399L187.879 104.332L187.67 107.942L188.588 108.973L190.888 109.106L191.031 106.63L192.373 106.708L192.142 110.701L187.973 110.459L186.287 108.567L186.58 103.519L188.473 101.834Z" fill="white"/>
<path d="M195.965 120.2L194.199 127.509L192.893 127.194L194.298 121.377L190.829 120.54L189.534 125.905L188.243 125.594L189.539 120.228L186.024 119.379L184.619 125.196L183.312 124.88L185.078 117.57L195.965 120.2Z" fill="white"/>
<path d="M182.737 132.35L189.704 135.428L190.619 137.791L188.589 142.387L186.31 143.269L185.153 142.758L185.774 141.353L186.433 141.644L187.657 141.17L189.092 137.921L188.585 136.613L182.614 133.975L181.306 134.482L179.871 137.731L180.344 138.954L181.003 139.245L180.382 140.65L179.226 140.14L178.344 137.861L180.374 133.265L182.737 132.35Z" fill="white"/>
<path d="M176.881 161.349L172.542 166.333L170.353 166.484L167.553 164.047L167.4 161.835L170.72 158.022L167.425 155.153L168.434 153.995L176.881 161.349ZM168.831 162.19L168.889 163.195L171.001 165.033L172.004 164.953L174.883 161.646L171.709 158.883L168.831 162.19Z" fill="white"/>
<path d="M164.549 174.215L163.345 175.169L160.276 171.293L158.47 172.723L159.318 178.357L157.988 179.41L157.044 173.035L150.848 170.777L152.203 169.705L157.635 171.669L159.442 170.239L156.393 166.388L157.597 165.434L164.549 174.215Z" fill="white"/>
<path d="M150.063 184.596L144.131 187.721L141.689 186.964L138.154 180.254L138.911 177.812L144.843 174.687L150.063 184.596ZM140.175 178.665L139.759 180.005L142.802 185.781L144.142 186.196L148.077 184.123L144.11 176.592L140.175 178.665Z" fill="white"/>
<path d="M121.638 184.626L121.816 185.406L121.407 186.057L120.581 186.247L119.929 185.838L119.751 185.058L120.16 184.406L120.986 184.217L121.638 184.626Z" fill="white"/>
</svg>
