<?xml version="1.0" standalone="no"?>
<!DOCTYPE svg PUBLIC "-//W3C//DTD SVG 20010904//EN"
 "http://www.w3.org/TR/2001/REC-SVG-20010904/DTD/svg10.dtd">
<svg version="1.0" xmlns="http://www.w3.org/2000/svg"
 width="141.000000pt" height="141.000000pt" viewBox="0 0 141.000000 141.000000"
 preserveAspectRatio="xMidYMid meet">
<metadata>
Created by potrace 1.14, written by Peter Selinger 2001-2017
</metadata>
<g transform="translate(0.000000,141.000000) scale(0.100000,-0.100000)"
fill="#000000" stroke="none">
<path d="M180 1402 c-6 -2 -10 -40 -10 -88 l0 -84 108 0 109 0 84 -87 84 -88
153 -1 154 0 81 88 81 88 108 0 108 0 0 88 0 87 -106 0 -106 -1 -84 -87 -84
-87 -150 0 -151 0 -85 85 c-48 47 -89 85 -93 86 -20 3 -193 3 -201 1z"/>
<path d="M170 968 l0 -88 106 0 105 0 89 -90 88 -90 150 1 150 0 83 89 83 90
108 0 108 0 0 88 0 87 -97 -2 c-127 -2 -120 -1 -135 -17 -7 -7 -44 -46 -82
-85 l-68 -71 -151 0 -152 0 -86 86 -86 85 -106 2 -107 2 0 -87z"/>
<path d="M170 615 l0 -85 48 -1 c26 0 73 0 104 1 l58 1 88 -90 88 -91 151 0
151 0 84 90 c71 78 87 91 113 89 17 0 65 -1 108 0 l77 1 0 85 0 85 -108 0
-109 0 -82 -85 -82 -85 -152 0 -152 0 -85 85 -85 85 -107 0 -108 0 0 -85z"/>
<path d="M170 265 c0 -61 4 -85 13 -86 6 0 54 0 105 -1 l93 0 86 -89 87 -89
157 0 c87 0 159 4 161 9 2 4 36 45 77 89 l74 80 66 1 c36 0 85 0 109 0 l42 1
0 85 0 85 -109 0 -108 0 -82 -86 -81 -86 -151 0 -151 0 -87 86 -86 86 -108 0
-107 0 0 -85z"/>
</g>
</svg>
