<svg width="21" height="20" viewBox="0 0 21 20" fill="none" xmlns="http://www.w3.org/2000/svg">
<path fill-rule="evenodd" clip-rule="evenodd" d="M1.61111 0H5.5C6.11111 0 6.61111 0.5 6.61111 1.11111C6.61111 2.5 6.83333 3.83333 7.24444 5.07778C7.36667 5.46667 7.27778 5.9 6.96667 6.21111L4.52222 8.65556C6.12222 11.8 8.7 14.3667 11.8444 15.9778L14.2889 13.5333C14.5111 13.3222 14.7889 13.2111 15.0778 13.2111C15.1889 13.2111 15.3111 13.2222 15.4222 13.2667C16.6667 13.6778 18.0111 13.9 19.3889 13.9C20 13.9 20.5 14.4 20.5 15.0111V18.8889C20.5 19.5 20 20 19.3889 20C8.95556 20 0.5 11.5444 0.5 1.11111C0.5 0.5 1 0 1.61111 0ZM4.43337 2.22222C4.50003 3.21111 4.6667 4.17778 4.93337 5.1L3.60003 6.43333C3.14448 5.1 2.85559 3.68889 2.75559 2.22222H4.43337ZM15.3888 15.5778C16.3333 15.8445 17.2999 16.0111 18.2777 16.0778V17.7334C16.8111 17.6334 15.3999 17.3445 14.0555 16.9L15.3888 15.5778Z" fill="white"/>
</svg>
