<svg width="308" height="400" viewBox="0 0 308 400" fill="none" xmlns="http://www.w3.org/2000/svg">
<path d="M-63.3647 35.0386V-25H10.3335L70.6898 35.0386H176.155L233.017 -25H307.668V35.0386H233.017L176.155 96.6656H70.6898L10.3335 35.0386H-63.3647Z" fill="white"/>
<path d="M-64 157.022V96.9833H9.69823L70.0545 157.022H175.519L232.381 96.9833H307.032V157.022H232.381L175.519 218.649H70.0545L9.69823 157.022H-64Z" fill="white"/>
<path d="M-64 279.005V218.966H9.69823L70.0545 279.005H175.519L232.381 218.966H307.032V279.005H232.381L175.519 340.632H70.0545L9.69823 279.005H-64Z" fill="white"/>
<path d="M-64 400.988V340.95H9.69823L70.0545 400.988H175.519L232.381 340.95H307.032V400.988H232.381L175.519 462.615H70.0545L9.69823 400.988H-64Z" fill="white"/>
</svg>
