<svg width="32" height="33" viewBox="0 0 32 33" fill="none" xmlns="http://www.w3.org/2000/svg">
<path fill-rule="evenodd" clip-rule="evenodd" d="M0 6.9C0 5.20261 0.674284 3.57475 1.87452 2.37452C3.07475 1.17428 4.70261 0.5 6.4 0.5H25.6C27.2974 0.5 28.9252 1.17428 30.1255 2.37452C31.3257 3.57475 32 5.20261 32 6.9V26.1C32 27.7974 31.3257 29.4252 30.1255 30.6255C28.9252 31.8257 27.2974 32.5 25.6 32.5H6.4C4.70261 32.5 3.07475 31.8257 1.87452 30.6255C0.674284 29.4252 0 27.7974 0 26.1V6.9ZM6.4 3.7C5.55131 3.7 4.73737 4.03714 4.13726 4.63726C3.53714 5.23737 3.2 6.05131 3.2 6.9V26.1C3.2 26.9487 3.53714 27.7626 4.13726 28.3627C4.73737 28.9629 5.55131 29.3 6.4 29.3H25.6C26.4487 29.3 27.2626 28.9629 27.8627 28.3627C28.4629 27.7626 28.8 26.9487 28.8 26.1V6.9C28.8 6.05131 28.4629 5.23737 27.8627 4.63726C27.2626 4.03714 26.4487 3.7 25.6 3.7H6.4ZM16 11.7C14.727 11.7 13.5061 12.2057 12.6059 13.1059C11.7057 14.0061 11.2 15.227 11.2 16.5C11.2 17.773 11.7057 18.9939 12.6059 19.8941C13.5061 20.7943 14.727 21.3 16 21.3C17.273 21.3 18.4939 20.7943 19.3941 19.8941C20.2943 18.9939 20.8 17.773 20.8 16.5C20.8 15.227 20.2943 14.0061 19.3941 13.1059C18.4939 12.2057 17.273 11.7 16 11.7ZM8 16.5C8 14.3783 8.84285 12.3434 10.3431 10.8431C11.8434 9.34285 13.8783 8.5 16 8.5C18.1217 8.5 20.1566 9.34285 21.6569 10.8431C23.1571 12.3434 24 14.3783 24 16.5C24 18.6217 23.1571 20.6566 21.6569 22.1569C20.1566 23.6571 18.1217 24.5 16 24.5C13.8783 24.5 11.8434 23.6571 10.3431 22.1569C8.84285 20.6566 8 18.6217 8 16.5ZM24.8 10.1C25.4365 10.1 26.047 9.84714 26.4971 9.39706C26.9471 8.94697 27.2 8.33652 27.2 7.7C27.2 7.06348 26.9471 6.45303 26.4971 6.00294C26.047 5.55286 25.4365 5.3 24.8 5.3C24.1635 5.3 23.553 5.55286 23.1029 6.00294C22.6529 6.45303 22.4 7.06348 22.4 7.7C22.4 8.33652 22.6529 8.94697 23.1029 9.39706C23.553 9.84714 24.1635 10.1 24.8 10.1Z" fill="white"/>
</svg>
