<svg width="62" height="81" viewBox="0 0 62 81" fill="none" xmlns="http://www.w3.org/2000/svg">
<path d="M0.604218 10.3502V0.5H12.6954L22.5977 10.3502H39.9006L49.2296 0.5H61.4772V10.3502H49.2296L39.9006 20.4609H22.5977L12.6954 10.3502H0.604218Z" fill="white"/>
<path d="M0.5 30.3631V20.5129H12.5912L22.4935 30.3631H39.7964L49.1254 20.5129H61.373V30.3631H49.1254L39.7964 40.4738H22.4935L12.5912 30.3631H0.5Z" fill="white"/>
<path d="M0.5 50.3763V40.5261H12.5912L22.4935 50.3763H39.7964L49.1254 40.5261H61.373V50.3763H49.1254L39.7964 60.487H22.4935L12.5912 50.3763H0.5Z" fill="white"/>
<path d="M0.5 70.3892V60.5391H12.5912L22.4935 70.3892H39.7964L49.1254 60.5391H61.373V70.3892H49.1254L39.7964 80.5H22.4935L12.5912 70.3892H0.5Z" fill="white"/>
</svg>
